#!OML:ASF H:\ManfredETheater\Project 1\Capture day 1\Session 1\subject.ASF
:FULLY-SPECIFIED
:DEGREES
78
root 5.44532 19.7035 7.93576 -170.063 -35.6117 182.009
lowerback 16.8627 -5.01907 1.22888
upperback -2.00994 -6.12383 3.86903
thorax -11.3781 -2.86191 5.18543
lowerneck -16.5019 -0.382491 -3.48468
upperneck -0.386472 -0.322726 1.97842
head 2.77972 -0.251481 1.24207
rclavicle -1.31098e-013 2.34566e-014
rhumerus -63.7363 19.0769 -60.2643
rradius 52.4201
rwrist 3.88651
rhand -31.4286 10.6708
rfingers 7.12502
rthumb -4.69701 -19.2572
lclavicle -1.31098e-013 2.34566e-014
lhumerus 21.5911 -9.00119 70.4519
lradius 123.672
lwrist 21.8244
lhand -28.6712 -12.6157
lfingers 7.12502
lthumb -2.03419 17.3543
rfemur -87.2527 -6.74859 6.43651
rtibia 78.9249
rfoot -6.85655 -7.90178
rtoes -25.8533
lfemur 1.47889 -6.39961 -18.5005
ltibia 20.8994
lfoot 19.1057 8.07196
ltoes -5.768
79
root 5.26647 19.9681 7.46091 -169.953 -35.5837 181.796
lowerback 16.2841 -5.20729 1.32207
upperback -1.97909 -6.37853 3.86025
thorax -11.0032 -3.00365 5.11542
lowerneck -16.7165 -0.268 -3.44189
upperneck 0.0833239 -0.142883 1.7966
head 2.97724 -0.162494 1.19249
rclavicle 4.77083e-015 -5.56597e-015
rhumerus -63.4015 19.0667 -59.5665
rradius 49.5332
rwrist 3.37047
rhand -30.6899 10.9529
rfingers 7.12502
rthumb -3.98368 -18.9896
lclavicle 4.77083e-015 -5.56597e-015
lhumerus 20.8612 -8.64232 68.774
lradius 123.43
lwrist 20.887
lhand -28.416 -12.5844
lfingers 7.12502
lthumb -1.78767 17.3879
rfemur -86.6948 -6.65998 6.17473
rtibia 74.0343
rfoot -6.69504 -8.76965
rtoes -25.716
lfemur 2.93889 -5.10704 -18.3674
ltibia 20.3533
lfoot 21.8458 8.04575
ltoes -1.94727
80
root 5.09441 20.2241 6.98766 -169.757 -35.7666 181.353
lowerback 15.6978 -5.42013 1.2467
upperback -1.90303 -6.70337 3.79092
thorax -10.558 -3.17175 5.07924
lowerneck -16.9143 -0.178216 -3.35033
upperneck 0.452041 -0.0105689 1.61224
head 3.1389 -0.0997963 1.12887
rclavicle -1.97791e-014 -1.11319e-014
rhumerus -62.9637 18.7013 -58.7105
rradius 46.729
rwrist 2.8943
rhand -30.0036 11.0796
rfingers 7.12502
rthumb -3.3209 -18.8742
lclavicle -1.97791e-014 -1.11319e-014
lhumerus 19.9007 -8.49226 67.2669
lradius 123.117
lwrist 20.1256
lhand -28.2412 -12.6215
lfingers 7.12502
lthumb -1.61882 17.3521
rfemur -85.8791 -6.86615 5.84766
rtibia 69.2042
rfoot -6.50784 -9.62165
rtoes -25.5412
lfemur 4.23504 -4.01259 -18.3342
ltibia 20.3432
lfoot 24.0015 7.0196
ltoes 0.740434
81
root 4.92891 20.4679 6.51606 -169.536 -36.1152 180.693
lowerback 15.1882 -5.63964 0.995033
upperback -1.78429 -7.06908 3.66126
thorax -10.0943 -3.35122 5.08383
lowerneck -17.0679 -0.122916 -3.232
upperneck 0.727101 0.0653782 1.43404
head 3.26182 -0.066364 1.05695
rclavicle -2.82274e-014 3.22031e-014
rhumerus -62.4893 17.9576 -57.6476
rradius 44.06
rwrist 2.46186
rhand -29.4192 10.9774
rfingers 7.12502
rthumb -2.7566 -18.9845
lclavicle -2.82274e-014 3.22031e-014
lhumerus 18.7291 -8.52372 65.9535
lradius 122.747
lwrist 19.505
lhand -28.1298 -12.7038
lfingers 7.12502
lthumb -1.51125 17.2706
rfemur -84.7909 -7.27868 5.40727
rtibia 64.4713
rfoot -6.28622 -10.4365
rtoes -25.3579
lfemur 5.43888 -3.27223 -18.44
ltibia 20.8478
lfoot 25.6354 5.34461
ltoes 2.59038
82
root 4.76827 20.6964 6.04517 -169.314 -36.5883 179.804
lowerback 14.7867 -5.84714 0.538768
upperback -1.61671 -7.45222 3.47756
thorax -9.61863 -3.53081 5.14955
lowerneck -17.1676 -0.110825 -3.12009
upperneck 0.922758 0.0804785 1.26676
head 3.34869 -0.0636438 0.98383
rclavicle 2.24627e-014 -3.02153e-014
rhumerus -62.0246 16.8268 -56.3219
rradius 41.5662
rwrist 2.06979
rhand -28.9901 10.5762
rfingers 7.12502
rthumb -2.34218 -19.3907
lclavicle 2.24627e-014 -3.02153e-014
lhumerus 17.3759 -8.69727 64.8566
lradius 122.319
lwrist 18.9806
lhand -28.0723 -12.7923
lfingers 7.12502
lthumb -1.45577 17.1825
rfemur -83.4296 -7.83905 4.80378
rtibia 59.8804
rfoot -5.99911 -11.1912
rtoes -25.2857
lfemur 6.58449 -2.92282 -18.7247
ltibia 21.8348
lfoot 26.9303 3.48888
ltoes 4.00909
83
root 4.61068 20.9081 5.57434 -169.122 -37.127 178.718
lowerback 14.5106 -6.02451 -0.109714
upperback -1.40634 -7.82438 3.25242
thorax -9.14697 -3.69897 5.28072
lowerneck -17.2078 -0.144846 -3.04715
upperneck 1.06868 0.0386149 1.12237
head 3.40843 -0.0885295 0.919917
rclavicle -1.71551e-013 3.49861e-014
rhumerus -61.6224 15.3313 -54.6983
rradius 39.2972
rwrist 1.66333
rhand -28.7491 9.87343
rfingers 7.12502
rthumb -2.10941 -20.0959
lclavicle -1.71551e-013 3.49861e-014
lhumerus 15.8603 -8.96481 63.9806
lradius 121.831
lwrist 18.5224
lhand -28.0571 -12.8845
lfingers 7.12502
lthumb -1.44109 17.0904
rfemur -81.8134 -8.46281 4.02263
rtibia 55.4642
rfoot -5.64931 -11.8734
rtoes -25.3479
lfemur 7.6989 -2.85277 -19.1673
ltibia 23.2478
lfoot 28.0311 1.63964
ltoes 5.03205
84
root 4.45434 21.1027 5.10316 -168.966 -37.6817 177.475
lowerback 14.3549 -6.15864 -0.922687
upperback -1.16715 -8.16343 3.00056
thorax -8.69315 -3.84761 5.47563
lowerneck -17.2011 -0.224395 -3.03941
upperneck 1.20148 -0.0521153 1.00331
head 3.45606 -0.13656 0.871838
rclavicle 1.78906e-015 2.78299e-015
rhumerus -61.3322 13.5314 -52.7723
rradius 37.291
rwrist 1.17324
rhand -28.732 8.91473
rfingers 7.12502
rthumb -2.09288 -21.0548
lclavicle 1.78906e-015 2.78299e-015
lhumerus 14.1995 -9.27608 63.3135
lradius 121.277
lwrist 18.102
lhand -28.0602 -12.9595
lfingers 7.12502
lthumb -1.44404 17.0154
rfemur -79.9873 -9.08723 3.07695
rtibia 51.2567
rfoot -5.21773 -12.4766
rtoes -25.5507
lfemur 8.80162 -2.93408 -19.731
ltibia 25.0106
lfoot 28.9163 -0.18949
ltoes 5.99926
85
root 4.29743 21.2804 4.63094 -168.846 -38.2188 176.123
lowerback 14.2958 -6.24635 -1.86208
upperback -0.917847 -8.45987 2.73908
thorax -8.26622 -3.97455 5.73011
lowerneck -17.1426 -0.340343 -3.11027
upperneck 1.34522 -0.175494 0.907172
head 3.49887 -0.199545 0.842764
rclavicle 1.01579e-013 -1.70955e-014
rhumerus -61.1929 11.5305 -50.5699
rradius 35.5781
rwrist 0.527681
rhand -28.909 7.76066
rfingers 7.12502
rthumb -2.26386 -22.2071
lclavicle 1.01579e-013 -1.70955e-014
lhumerus 12.4062 -9.58427 62.8273
lradius 120.657
lwrist 17.7201
lhand -28.0453 -12.9818
lfingers 7.12502
lthumb -1.42962 16.9932
rfemur -78.0072 -9.66958 2.00055
rtibia 47.2865
rfoot -4.71609 -13.0008
rtoes -25.8919
lfemur 9.90581 -3.0644 -20.3664
ltibia 27.0396
lfoot 29.5259 -2.00739
ltoes 6.99929
